<svg width="50" height="50" viewBox="0 0 50 50" fill="none" xmlns="http://www.w3.org/2000/svg">
<path d="M45.6055 0H4.39453C1.97441 0 0 2.58923 0 5.76923V44.2308C0 47.4 1.96563 50 4.39453 50H45.6055C48.0195 50 50 47.4195 50 44.2308V5.76923C50 2.6 48.0344 0 45.6055 0ZM44.9986 3.84615L25.0932 29.9786L5.01553 3.84615H44.9986ZM2.92969 43.4344V6.54731L17.039 24.9114L2.92969 43.4344ZM5.00127 46.1538L19.1194 27.6192L24.0664 34.058C24.6391 34.8033 25.5632 34.8009 26.1335 34.0521L30.957 27.7196L44.9987 46.1538H5.00127ZM47.0703 43.4342L33.0286 25L47.0703 6.56564V43.4342Z" fill="#CE3030"/>
</svg>

