<svg width="36" height="50" viewBox="0 0 36 50" fill="none" xmlns="http://www.w3.org/2000/svg">
<path d="M26.7337 10.5469L23.5529 19.6987L26.8174 20.2846C29.8866 11.8955 31.4212 7.07775 31.4212 5.83147C31.4212 4.78981 31.0678 4.26897 30.3609 4.26897C29.3006 4.26897 28.0916 6.36161 26.7337 10.5469ZM18.391 29.7154L19.3118 32.1708C20 31.3895 20.6604 30.7664 21.2928 30.3013L20.3721 30.1479L19.2979 29.9526L18.391 29.7154ZM10.2437 4.7154C10.2437 6.53832 11.7225 11.3839 14.6801 19.2522C15.0149 19.0662 15.4707 18.9732 16.0473 18.9732C16.3263 18.9732 17.0239 19.0197 18.1399 19.1127L14.7638 9.3192C13.3687 5.22693 12.2247 3.1808 11.3319 3.1808C10.9785 3.1808 10.7088 3.34356 10.5227 3.66908C10.3367 3.99461 10.2437 4.34338 10.2437 4.7154ZM8.03948 25.8929C8.03948 26.5625 8.51846 27.6693 9.47642 29.2132C10.4344 30.7571 11.5272 32.1801 12.7549 33.4821C13.9826 34.7842 14.9126 35.4353 15.5451 35.4353C15.8055 35.4353 16.0426 35.3144 16.2566 35.0725C16.4705 34.8307 16.5774 34.5796 16.5774 34.3192C16.5774 33.8728 16.2798 32.9241 15.6846 31.4732C15.4428 30.878 15.1451 30.2083 14.7917 29.4643C14.4383 28.7202 13.9965 27.8925 13.4664 26.981C12.9362 26.0696 12.3643 25.3162 11.7504 24.721C11.1366 24.1257 10.5599 23.8281 10.0205 23.8281C9.64848 23.8281 9.22531 24.0792 8.75098 24.5815C8.27665 25.0837 8.03948 25.5208 8.03948 25.8929ZM3.631 35.24C3.631 36.0026 3.86351 36.9699 4.32854 38.1417C5.42601 40.8389 7.13267 42.9501 9.44852 44.4754C11.7644 46.0007 14.3825 46.7634 17.3029 46.7634C21.5253 46.7634 25.0782 45.1823 27.9614 42.0201C30.7887 38.8765 32.2024 34.9051 32.2024 30.106C32.2024 29.3062 32.1931 28.683 32.1745 28.2366C32.1559 27.7902 32.049 27.2135 31.8537 26.5067C31.6583 25.7999 31.3747 25.279 31.0026 24.9442C29.961 24.0327 27.9939 23.3305 25.1014 22.8376C22.2089 22.3447 19.6931 22.0982 17.554 22.0982C16.8657 22.0982 16.41 22.2005 16.1868 22.4051C15.9636 22.4981 15.852 22.8237 15.852 23.3817C15.852 24.0141 16.0519 24.5722 16.4519 25.0558C16.8518 25.5394 17.368 25.9115 18.0004 26.1719C18.6329 26.4323 19.3537 26.6509 20.1628 26.8276C20.972 27.0043 21.7858 27.1112 22.6042 27.1484C23.4227 27.1856 24.2132 27.2228 24.9759 27.26C25.7385 27.2972 26.3896 27.2972 26.929 27.26H27.5707C28.0172 27.26 28.3892 27.4368 28.6868 27.7902C28.9658 28.1436 29.1425 28.6551 29.2169 29.3248C28.6961 29.8456 27.8032 30.3478 26.5384 30.8315C25.4037 31.2407 24.5387 31.6685 23.9435 32.115C22.753 32.9706 21.7439 34.0309 20.9162 35.2958C20.0884 36.5606 19.6745 37.8348 19.6745 39.1183C19.6745 39.6949 19.8466 40.518 20.1907 41.5876C20.5348 42.6572 20.7069 43.471 20.7069 44.029L20.6232 44.3638C20.5488 44.5871 20.5116 44.7173 20.5116 44.7545C17.9632 44.5685 16.6053 42.5595 16.4379 38.7277C16.2891 38.7649 15.9078 38.7835 15.2939 38.7835C15.3311 38.9137 15.3497 39.109 15.3497 39.3694C15.3497 40.3553 14.9731 41.1877 14.2197 41.8666C13.4664 42.5456 12.5875 42.885 11.583 42.885C10.0577 42.885 8.50916 42.1596 6.93736 40.7087C5.36556 39.2578 4.57966 37.779 4.57966 36.2723C4.57966 35.6399 4.88658 35.0167 5.50042 34.4029C6.46768 35.5934 7.02572 36.3002 7.17453 36.5234C8.60682 38.458 9.8438 39.4252 10.8855 39.4252C11.1087 39.4252 11.3551 39.3462 11.6249 39.1881C11.8946 39.0299 12.0294 38.8393 12.0294 38.6161C12.0294 37.9836 11.2156 36.635 9.58803 34.5703C7.96043 32.5056 6.87691 31.4732 6.33747 31.4732C5.53762 31.4732 4.88658 31.8871 4.38435 32.7148C3.88211 33.5426 3.631 34.3843 3.631 35.24ZM0.450195 35.4911C0.450195 33.6124 0.845471 32.0964 1.63602 30.9431C2.42657 29.7898 3.6961 28.9714 5.44461 28.4877C4.92378 27.1112 4.66336 26.144 4.66336 25.5859C4.66336 24.4327 5.2307 23.2887 6.36537 22.154C7.50005 21.0193 8.63472 20.452 9.76939 20.452C10.3088 20.452 10.9599 20.5915 11.7225 20.8705C8.69052 12.2768 7.17453 7.00335 7.17453 5.05022C7.17453 3.56213 7.55585 2.3484 8.3185 1.40904C9.08115 0.46968 10.1879 0 11.6388 0C14.0756 0 17.0983 5.40365 20.7069 16.2109C20.8185 16.5272 20.8929 16.7411 20.9301 16.8527C21.0417 16.5551 21.3114 15.8157 21.7393 14.6345C22.1671 13.4533 22.5717 12.3512 22.953 11.3281C23.3343 10.3051 23.8365 9.11923 24.4597 7.77065C25.0828 6.42206 25.6827 5.27809 26.2593 4.33873C26.836 3.39937 27.4917 2.59487 28.2264 1.92522C28.9612 1.25558 29.6727 0.920759 30.3609 0.920759C31.6816 0.920759 32.7233 1.37649 33.4859 2.28795C34.2486 3.1994 34.6299 4.33408 34.6299 5.69196C34.6299 7.70089 33.1511 12.8162 30.1935 21.0379C31.3282 21.317 32.2629 21.7448 32.9976 22.3214C33.7324 22.8981 34.2765 23.6235 34.6299 24.4978C34.9833 25.372 35.2251 26.2416 35.3553 27.1066C35.4855 27.9715 35.5506 28.9993 35.5506 30.1897C35.5506 32.9799 35.1135 35.5841 34.2393 38.0022C33.365 40.4204 32.1373 42.513 30.5562 44.2801C28.9751 46.0472 27.0127 47.4423 24.6689 48.4654C22.3252 49.4885 19.7396 50 16.9122 50C14.8475 50 12.7735 49.6094 10.6901 48.8281C7.91857 47.7679 5.51902 45.9868 3.49149 43.4849C1.46396 40.9831 0.450195 38.3185 0.450195 35.4911Z" fill="#CE3030"/>
</svg>
