<svg width="50" height="50" viewBox="0 0 50 50" fill="none" xmlns="http://www.w3.org/2000/svg">
<path d="M46.3077 0H3.69449C1.65391 0 0 1.60333 0 3.58222V46.4161C0 48.395 1.65446 50 3.69449 50H46.3077C48.3483 50 50 48.3944 50 46.4161V3.58222C50 1.60389 48.3483 0 46.3077 0V0ZM15.1585 41.8533H7.60397V19.2789H15.1585V41.8533V41.8533ZM11.3818 16.195H11.3312C8.79788 16.195 7.15563 14.4622 7.15563 12.2933C7.15563 10.0806 8.84621 8.395 11.4296 8.395C14.0135 8.395 15.603 10.08 15.653 12.2933C15.653 14.4628 14.014 16.195 11.3818 16.195V16.195ZM42.391 41.8533H34.8387V29.7756C34.8387 26.74 33.7443 24.6694 31.0131 24.6694C28.9237 24.6694 27.6836 26.0667 27.1392 27.415C26.937 27.8972 26.8875 28.5706 26.8875 29.2439V41.8528H19.3363C19.3363 41.8528 19.4352 21.3956 19.3363 19.2783H26.8881V22.4789C27.8909 20.9411 29.682 18.7472 33.6931 18.7472C38.6638 18.7472 42.391 21.9717 42.391 28.9089V41.8533V41.8533ZM26.8392 22.5506C26.8525 22.5294 26.8703 22.5039 26.8881 22.4794V22.5506H26.8392Z" fill="#808080"/>
</svg>

