<svg width="50" height="50" viewBox="0 0 50 50" fill="none" xmlns="http://www.w3.org/2000/svg">
<path d="M43.9385 2.80402H5.58702C3.75052 2.80402 2.26202 4.24702 2.26202 6.02802V44.5785C2.26202 46.3595 3.75102 47.804 5.58702 47.804H43.9385C45.775 47.804 47.2615 46.359 47.2615 44.5785V6.02802C47.2615 4.24752 45.775 2.80402 43.9385 2.80402ZM15.9045 40.472H9.10552V20.155H15.9045V40.472ZM12.5055 17.3795H12.46C10.18 17.3795 8.70202 15.82 8.70202 13.868C8.70202 11.8765 10.2235 10.3595 12.5485 10.3595C14.874 10.3595 16.3045 11.876 16.3495 13.868C16.3495 15.8205 14.8745 17.3795 12.5055 17.3795ZM40.4135 40.472H33.6165V29.602C33.6165 26.87 32.6315 25.0065 30.1735 25.0065C28.293 25.0065 27.177 26.264 26.687 27.4775C26.505 27.9115 26.4605 28.5175 26.4605 29.1235V40.4715H19.6645C19.6645 40.4715 19.7535 22.06 19.6645 20.1545H26.461V23.035C27.3635 21.651 28.9755 19.6765 32.5855 19.6765C37.059 19.6765 40.4135 22.5785 40.4135 28.822V40.472ZM26.417 23.0995C26.429 23.0805 26.445 23.0575 26.461 23.0355V23.0995H26.417Z" fill="black"/>
</svg>
