<svg width="58" height="36" viewBox="0 0 58 36" fill="none" xmlns="http://www.w3.org/2000/svg">
<path d="M4.83789 0.453125V36H0.125977V0.453125H4.83789ZM26.2979 0.453125L11.5273 17.0303L3.22656 25.6484L2.44531 20.6191L8.69531 13.7344L20.6338 0.453125H26.2979ZM21.7568 36L8.59766 18.666L11.4053 14.9307L27.3721 36H21.7568ZM31.5225 0.453125H43.29C45.9593 0.453125 48.2135 0.860026 50.0527 1.67383C51.9082 2.48763 53.3161 3.69206 54.2764 5.28711C55.2529 6.86589 55.7412 8.81087 55.7412 11.1221C55.7412 12.7497 55.4076 14.2389 54.7402 15.5898C54.0892 16.9245 53.1452 18.0638 51.9082 19.0078C50.6875 19.9355 49.2227 20.6273 47.5137 21.083L46.1953 21.5957H35.1357L35.0869 17.7627H43.4365C45.1292 17.7627 46.5371 17.4697 47.6602 16.8838C48.7832 16.2816 49.6296 15.4759 50.1992 14.4668C50.7689 13.4577 51.0537 12.3428 51.0537 11.1221C51.0537 9.75488 50.7852 8.55859 50.248 7.5332C49.7109 6.50781 48.8646 5.71842 47.709 5.16504C46.5697 4.59538 45.0967 4.31055 43.29 4.31055H36.2344V36H31.5225V0.453125ZM52.2988 36L43.6562 19.8867L48.5635 19.8623L57.3281 35.707V36H52.2988Z" fill="#CE3030"/>
</svg>

