<svg width="50" height="50" viewBox="0 0 50 50" fill="none" xmlns="http://www.w3.org/2000/svg">
<g clip-path="url(#clip0_406_2)">
<path d="M37.4404 10.5469L32.9094 19.6987L37.5596 20.2846C41.9316 11.8955 44.1176 7.07775 44.1176 5.83147C44.1176 4.78981 43.6142 4.26897 42.6073 4.26897C41.097 4.26897 39.3747 6.36161 37.4404 10.5469ZM25.5564 29.7154L26.868 32.1708C27.8484 31.3895 28.7891 30.7664 29.69 30.3013L28.3784 30.1479L26.8482 29.9526L25.5564 29.7154ZM13.9507 4.7154C13.9507 6.53832 16.0572 11.3839 20.2703 19.2522C20.7472 19.0662 21.3964 18.9732 22.2178 18.9732C22.6153 18.9732 23.6089 19.0197 25.1987 19.1127L20.3895 9.3192C18.4022 5.22693 16.7727 3.1808 15.5008 3.1808C14.9974 3.1808 14.6131 3.34356 14.3482 3.66908C14.0832 3.99461 13.9507 4.34338 13.9507 4.7154ZM10.8108 25.8929C10.8108 26.5625 11.4931 27.6693 12.8577 29.2132C14.2223 30.7571 15.779 32.1801 17.5278 33.4821C19.2766 34.7842 20.6015 35.4353 21.5024 35.4353C21.8733 35.4353 22.2112 35.3144 22.5159 35.0725C22.8206 34.8307 22.973 34.5796 22.973 34.3192C22.973 33.8728 22.549 32.9241 21.7011 31.4732C21.3567 30.878 20.9327 30.2083 20.4293 29.4643C19.9258 28.7202 19.2965 27.8925 18.5413 26.981C17.7862 26.0696 16.9714 25.3162 16.097 24.721C15.2226 24.1257 14.4012 23.8281 13.6328 23.8281C13.1028 23.8281 12.5 24.0792 11.8243 24.5815C11.1486 25.0837 10.8108 25.5208 10.8108 25.8929ZM4.531 35.24C4.531 36.0026 4.86222 36.9699 5.52464 38.1417C7.08797 40.8389 9.51908 42.9501 12.818 44.4754C16.1169 46.0007 19.8463 46.7634 24.0064 46.7634C30.0212 46.7634 35.0821 45.1823 39.1892 42.0201C43.2167 38.8765 45.2305 34.9051 45.2305 30.106C45.2305 29.3062 45.2173 28.683 45.1908 28.2366C45.1643 27.7902 45.0119 27.2135 44.7337 26.5067C44.4555 25.7999 44.0514 25.279 43.5215 24.9442C42.0376 24.0327 39.2356 23.3305 35.1153 22.8376C30.995 22.3447 27.4112 22.0982 24.3641 22.0982C23.3837 22.0982 22.7345 22.2005 22.4165 22.4051C22.0986 22.4981 21.9396 22.8237 21.9396 23.3817C21.9396 24.0141 22.2244 24.5722 22.7941 25.0558C23.3638 25.5394 24.0991 25.9115 25 26.1719C25.9009 26.4323 26.9277 26.6509 28.0803 26.8276C29.2329 27.0043 30.3922 27.1112 31.558 27.1484C32.7239 27.1856 33.85 27.2228 34.9364 27.26C36.0228 27.2972 36.9502 27.2972 37.7186 27.26H38.6327C39.2687 27.26 39.7986 27.4368 40.2226 27.7902C40.62 28.1436 40.8718 28.6551 40.9777 29.3248C40.2358 29.8456 38.964 30.3478 37.1622 30.8315C35.5458 31.2407 34.3137 31.6685 33.4658 32.115C31.77 32.9706 30.3325 34.0309 29.1534 35.2958C27.9743 36.5606 27.3847 37.8348 27.3847 39.1183C27.3847 39.6949 27.6298 40.518 28.12 41.5876C28.6102 42.6572 28.8553 43.471 28.8553 44.029L28.7361 44.3638C28.6301 44.5871 28.5771 44.7173 28.5771 44.7545C24.947 44.5685 23.0127 42.5595 22.7742 38.7277C22.5623 38.7649 22.0191 38.7835 21.1447 38.7835C21.1977 38.9137 21.2242 39.109 21.2242 39.3694C21.2242 40.3553 20.6876 41.1877 19.6145 41.8666C18.5413 42.5456 17.2893 42.885 15.8585 42.885C13.6857 42.885 11.4799 42.1596 9.24086 40.7087C7.00185 39.2578 5.88235 37.779 5.88235 36.2723C5.88235 35.6399 6.31955 35.0167 7.19396 34.4029C8.57181 35.5934 9.36672 36.3002 9.5787 36.5234C11.619 38.458 13.381 39.4252 14.8649 39.4252C15.1828 39.4252 15.5339 39.3462 15.9181 39.1881C16.3023 39.0299 16.4944 38.8393 16.4944 38.6161C16.4944 37.9836 15.3352 36.635 13.0167 34.5703C10.6982 32.5056 9.15474 31.4732 8.38633 31.4732C7.24695 31.4732 6.31955 31.8871 5.60413 32.7148C4.88871 33.5426 4.531 34.3843 4.531 35.24ZM0 35.4911C0 33.6123 0.563063 32.0964 1.68919 30.9431C2.81532 29.7898 4.62374 28.9714 7.11447 28.4877C6.37255 27.1112 6.00159 26.144 6.00159 25.5859C6.00159 24.4327 6.80975 23.2887 8.42607 22.154C10.0424 21.0193 11.6587 20.452 13.275 20.452C14.0435 20.452 14.9709 20.5915 16.0572 20.8705C11.7382 12.2768 9.5787 7.00335 9.5787 5.05022C9.5787 3.56213 10.1219 2.3484 11.2083 1.40904C12.2946 0.46968 13.8712 0 15.938 0C19.4091 0 23.7149 5.40365 28.8553 16.2109C29.0143 16.5272 29.1203 16.7411 29.1733 16.8527C29.3323 16.5551 29.7165 15.8157 30.3259 14.6345C30.9353 13.4533 31.5117 12.3512 32.0548 11.3281C32.598 10.3051 33.3135 9.11923 34.2011 7.77065C35.0888 6.42206 35.9433 5.27809 36.7647 4.33873C37.5861 3.39937 38.5201 2.59487 39.5668 1.92522C40.6134 1.25558 41.6269 0.920759 42.6073 0.920759C44.4886 0.920759 45.9724 1.37649 47.0588 2.28795C48.1452 3.1994 48.6884 4.33408 48.6884 5.69196C48.6884 7.70089 46.5819 12.8162 42.3688 21.0379C43.9852 21.317 45.3166 21.7448 46.3633 22.3214C47.4099 22.8981 48.1849 23.6235 48.6884 24.4978C49.1918 25.372 49.5363 26.2416 49.7218 27.1066C49.9073 27.9715 50 28.9993 50 30.1897C50 32.9799 49.3773 35.5841 48.132 38.0022C46.8866 40.4204 45.1378 42.513 42.8855 44.2801C40.6333 46.0472 37.8378 47.4423 34.4992 48.4654C31.1606 49.4885 27.4775 50 23.4499 50C20.5087 50 17.5543 49.6094 14.5866 48.8281C10.6386 47.7679 7.22046 45.9868 4.33227 43.4849C1.44409 40.9831 0 38.3185 0 35.4911Z" fill="#850101"/>
</g>
<defs>
<clipPath id="clip0_406_2">
<rect width="50" height="50" fill="white"/>
</clipPath>
</defs>
</svg>

