<svg width="50" height="50" viewBox="0 0 50 50" fill="none" xmlns="http://www.w3.org/2000/svg">
<path d="M24.9969 0C11.1938 0 1.44265e-05 11.4764 1.44265e-05 25.6336C-0.00562501 31.0065 1.64225 36.2454 4.71074 40.6098C7.77922 44.9743 12.1132 48.2435 17.1 49.9555C18.35 50.1917 18.8063 49.4002 18.8063 48.7205C18.8063 48.1109 18.7844 46.4992 18.7719 44.361C11.8188 45.9088 10.35 40.9238 10.35 40.9238C9.21563 37.9621 7.57501 37.1738 7.57501 37.1738C5.30314 35.5845 7.74376 35.6164 7.74376 35.6164C10.2531 35.7983 11.5719 38.2589 11.5719 38.2589C13.8031 42.1748 17.425 41.0451 18.85 40.3876C19.075 38.7313 19.7219 37.6015 20.4375 36.96C14.8875 36.3122 9.05001 34.1133 9.05001 24.2932C9.05001 21.4943 10.025 19.2061 11.625 17.4125C11.3656 16.7646 10.5094 14.1572 11.8688 10.6307C11.8688 10.6307 13.9688 9.94132 18.7438 13.2572C20.7836 12.6879 22.8885 12.3981 25.0031 12.3955C27.1179 12.3998 29.2227 12.6907 31.2625 13.2604C36.0344 9.94451 38.1312 10.6339 38.1312 10.6339C39.4937 14.1636 38.6375 16.7678 38.3812 17.4157C39.9844 19.2092 40.95 21.4975 40.95 24.2964C40.95 34.142 35.1062 36.309 29.5375 36.9441C30.4344 37.7355 31.2344 39.2993 31.2344 41.6897C31.2344 45.1173 31.2031 47.8811 31.2031 48.7205C31.2031 49.4066 31.6531 50.2045 32.9219 49.9524C37.9039 48.2363 42.2324 44.9658 45.2966 40.6024C48.3609 36.239 50.006 31.0031 50 25.6336C50 11.4764 38.8062 0 24.9969 0Z" fill="#454545"/>
</svg>

